<?xml version="1.0" standalone="no"?>
<!DOCTYPE svg PUBLIC "-//W3C//DTD SVG 20010904//EN"
 "http://www.w3.org/TR/2001/REC-SVG-20010904/DTD/svg10.dtd">
<svg version="1.0" xmlns="http://www.w3.org/2000/svg"
 width="233.000000pt" height="204.000000pt" viewBox="0 0 233.000000 204.000000"
 preserveAspectRatio="xMidYMid meet">

<g transform="translate(0.000000,204.000000) scale(0.100000,-0.100000)"
fill="#000000" stroke="none">
<path d="M670 1464 c-73 -32 -102 -79 -101 -167 0 -73 18 -103 82 -134 43 -21
54 -22 539 -25 488 -4 496 -5 553 -27 93 -36 155 -94 202 -185 37 -72 40 -84
40 -159 0 -99 -20 -162 -73 -232 -51 -68 -124 -121 -202 -148 -64 -21 -76 -22
-622 -25 l-558 -3 0 -174 0 -175 483 0 c265 0 536 5 603 10 218 17 349 75 495
220 71 71 93 100 131 180 105 216 105 440 -1 655 -87 175 -235 302 -436 372
l-80 28 -510 2 c-440 2 -515 1 -545 -13z"/>
</g>
</svg>
