<?xml version="1.0" standalone="no"?>
<!DOCTYPE svg PUBLIC "-//W3C//DTD SVG 20010904//EN"
 "http://www.w3.org/TR/2001/REC-SVG-20010904/DTD/svg10.dtd">
<svg version="1.0" xmlns="http://www.w3.org/2000/svg"
 width="233.000000pt" height="233.000000pt" viewBox="0 0 233.000000 233.000000"
 preserveAspectRatio="xMidYMid meet">
<metadata>
Created by potrace 1.14, written by Peter Selinger 2001-2017
</metadata>
<g transform="translate(0.000000,233.000000) scale(0.100000,-0.100000)"
fill="#000000" stroke="none">
<path d="M725 2179 c-133 -7 -194 -16 -213 -31 -7 -6 -15 -8 -19 -5 -3 4 -15
1 -27 -5 -11 -7 -27 -13 -34 -14 -7 -1 -25 -10 -40 -20 -15 -10 -30 -18 -33
-17 -4 1 -18 -8 -31 -20 -14 -13 -31 -21 -38 -19 -7 3 -10 0 -6 -7 4 -6 2 -11
-5 -11 -16 0 -129 -119 -129 -137 0 -8 -4 -12 -9 -8 -5 3 -13 -5 -17 -17 -4
-13 -9 -25 -13 -28 -11 -9 -61 -119 -63 -140 0 -3 -5 -16 -10 -30 -5 -14 -12
-41 -14 -60 -3 -19 -7 -46 -9 -60 -6 -37 -6 -151 0 -185 13 -75 21 -113 25
-117 1 -2 3 -10 5 -19 5 -26 64 -147 92 -187 22 -33 82 -99 131 -144 10 -10
24 -18 30 -18 7 0 12 -7 12 -15 0 -8 3 -15 8 -14 17 3 51 -14 46 -22 -3 -5 2
-9 11 -9 9 0 27 -7 40 -16 14 -9 25 -12 25 -8 0 5 4 4 8 -1 10 -14 120 -47
132 -40 6 3 10 2 10 -3 0 -13 68 -15 570 -16 l465 0 46 23 c43 21 86 71 73 84
-3 3 -2 11 2 19 15 23 10 78 -11 120 -20 43 -69 76 -123 86 -35 6 -307 11
-700 15 -253 2 -314 5 -321 16 -5 8 -14 10 -21 6 -7 -4 -15 -4 -19 1 -3 5 -24
18 -45 29 -45 23 -129 105 -109 105 4 0 -1 7 -11 15 -11 8 -17 15 -13 15 4 0
3 10 -4 21 -17 32 -23 76 -22 154 1 95 9 142 29 172 11 18 12 23 3 17 -10 -6
-10 -3 1 11 8 11 20 26 25 33 39 51 134 125 162 125 7 0 13 5 13 10 0 6 3 8 6
4 3 -3 25 0 49 7 27 9 112 14 231 15 104 2 203 4 219 7 17 2 138 6 270 8 132
3 290 8 350 12 l110 6 0 156 0 157 -485 0 c-267 0 -539 -3 -605 -6z"/>
<path d="M728 1629 c-82 -12 -130 -48 -153 -115 -14 -41 -12 -113 4 -142 39
-72 107 -90 341 -86 402 7 728 1 792 -16 121 -32 232 -144 263 -265 54 -209
-88 -432 -303 -475 -93 -19 -124 -20 -629 -20 l-513 0 0 -178 0 -177 388 2
c641 4 756 8 846 32 270 71 465 261 535 520 26 98 27 268 2 362 -21 79 -68
181 -111 245 -113 163 -326 290 -522 310 -85 8 -883 11 -940 3z"/>
</g>
</svg>
